<svg fill="#4285F4" role="img" viewBox="0 0 30 24" xmlns="http://www.w3.org/2000/svg"><title>Google Cloud</title><path d="M15.237 0.003a11.652 11.652 0 0 0-11.515 8.596c0.066-0.025-0.069 0.016 0 0-4.832 3.181-4.891 10.113-0.308 13.644l0.007-0.009-0.008 0.037a8.376 8.376 0 0 0 5.084 1.691h6.451l0.037 0.038h6.475c8.339 0.066 11.692-10.731 4.782-15.401a11.678 11.678 0 0 0-3.518-5.677l-0.054 0.054 0.008-0.062A11.652 11.652 0 0 0 15.237 0.003z m-0.447 5.17c1.551-0.05 3.14 0.459 4.348 1.434a6.467 6.467 0 0 1 2.322 5.086v0.646c4.402-0.087 4.402 6.562 0 6.476h-6.476l-0.01 0.011v-0.05H8.497a3.23 3.23 0 0 1-1.331-0.287h0.001a3.239 3.239 0 1 1 4.286-4.286l3.758-3.756A8.414 8.414 0 0 0 10.149 7.311c0.022-0.012 0.05-0.032 0.067-0.029a6.467 6.467 0 0 1 4.577-2.107z"/></svg>