<svg xmlns="http://www.w3.org/2000/svg" viewBox="0 0 24 24" fill="none">
  <path d="M13.587 7.637l4.636-4.636a.618.618 0 0 1 .874.874l-4.636 4.636a.618.618 0 0 1-.874-.874z" fill="#425CC7"/>
  <path d="M10.674 10.55l6.636-6.636a.618.618 0 0 1 .874.874l-6.636 6.636a.618.618 0 0 1-.874-.874z" fill="#425CC7"/>
  <path d="M12.062 13.857a2.473 2.473 0 1 0-3.498-3.498 2.473 2.473 0 0 0 3.498 3.498z" fill="#425CC7"/>
  <path d="M7.192 18.727a1.855 1.855 0 1 0-2.624-2.624 1.855 1.855 0 0 0 2.624 2.624z" fill="#425CC7"/>
  <path d="M9.81 14.11l-2.497 2.497a.618.618 0 0 1-.874-.874l2.497-2.497a.618.618 0 0 1 .874.874z" fill="#425CC7"/>
</svg>
