<svg fill="#000000" role="img" viewBox="0 0 81 24" xmlns="http://www.w3.org/2000/svg"><title>Splunk</title><path d="M78.752 11.7l-7.554-3.678v-2.191L80.949 10.722v1.999l-9.751 4.848v-2.144z m-18.192 6.206h-3.24v-17.899h3.24v10.503h0.343l4.315-4.992 2.437 1.045-4.146 4.436 4.898 6.098-2.994 1.048-4.853-6.728z m-8.687-0.007v-6.971a9.051 9.051 0 0 0-0.088-1.416 2.666 2.666 0 0 0-0.303-0.876c-0.381-0.681-1.038-1.025-1.989-1.025a2.993 2.993 0 0 0-1.554 0.381 2.269 2.269 0 0 0-0.964 1.112 3.411 3.411 0 0 0-0.236 0.887c-0.04 0.438-0.064 0.883-0.057 1.331v6.574h-3.239v-12.183h3.239l0.007 1.635c0.624-0.674 1.257-1.173 1.908-1.473 0.647-0.3 1.409-0.452 2.268-0.451 0.964 0 1.776 0.196 2.431 0.596a3.425 3.425 0 0 1 1.601 2.242 6.647 6.647 0 0 1 0.182 1.51c0.007 0.337 0.013 0.742 0.013 1.207v6.92z m-13.871 0.007l-0.006-1.635a6.01 6.01 0 0 1-1.905 1.473 5.383 5.383 0 0 1-2.272 0.455c-0.961 0-1.766-0.192-2.427-0.573a3.276 3.276 0 0 1-1.432-1.699 2.528 2.528 0 0 1-0.182-0.563 6.465 6.465 0 0 1-0.112-0.671 6.853 6.853 0 0 1-0.057-0.869 52.301 52.301 0 0 1-0.017-1.197V5.697h3.223v6.977c-0.01 0.475 0.02 0.951 0.087 1.416 0.051 0.31 0.152 0.607 0.304 0.876 0.381 0.688 1.038 1.031 1.988 1.032 1.213 0 2.043-0.506 2.495-1.514 0.118-0.276 0.202-0.566 0.249-0.866 0.057-0.452 0.081-0.907 0.074-1.358v-6.573h3.219v12.215zM24.266 0h3.219v17.899h-3.219zM19.463 11.663c0-1.335-0.27-2.387-0.809-3.159a2.558 2.558 0 0 0-2.215-1.162 2.71 2.71 0 0 0-2.336 1.233c-0.576 0.826-0.863 1.935-0.852 3.337 0 1.365 0.283 2.437 0.842 3.226a2.683 2.683 0 0 0 2.326 1.17 2.309 2.309 0 0 0 1.46-0.455 3.32 3.32 0 0 0 0.933-1.146c0.239-0.472 0.408-0.984 0.496-1.51 0.101-0.509 0.145-1.011 0.155-1.534m3.404-0.121c0.01 0.897-0.135 1.793-0.434 2.649-0.276 0.775-0.688 1.487-1.227 2.11-1.045 1.217-2.575 1.911-4.18 1.898a5.629 5.629 0 0 1-1.055-0.095 3.509 3.509 0 0 1-0.927-0.33 4.483 4.483 0 0 1-0.866-0.6 8.019 8.019 0 0 1-0.894-0.903v7.729h-3.131v-18.287h3.135l0.013 1.784c0.57-0.715 1.19-1.24 1.854-1.578 0.664-0.337 1.436-0.506 2.319-0.495a5.087 5.087 0 0 1 3.897 1.709c0.499 0.56 0.873 1.217 1.112 1.924 0.27 0.796 0.404 1.635 0.388 2.485m-14.191 3a3.189 3.189 0 0 1-0.344 1.486 3.394 3.394 0 0 1-0.951 1.163c-0.438 0.337-0.927 0.583-1.449 0.742a6.067 6.067 0 0 1-1.84 0.269 6.691 6.691 0 0 1-2.148-0.327 6.62 6.62 0 0 1-1.897-1.078l1.051-1.703c0.506 0.425 0.957 0.731 1.365 0.927 0.388 0.192 0.809 0.293 1.241 0.294a1.878 1.878 0 0 0 1.257-0.405 1.335 1.335 0 0 0 0.472-1.085 1.601 1.601 0 0 0-0.404-1.072 4.402 4.402 0 0 0-0.631-0.583 31.116 31.116 0 0 0-1.038-0.782 22.878 22.878 0 0 1-0.947-0.708 7.112 7.112 0 0 1-0.85-0.782 3.502 3.502 0 0 1-0.606-0.927 2.784 2.784 0 0 1-0.233-1.17 3.01 3.01 0 0 1 0.317-1.379 3.152 3.152 0 0 1 0.859-1.058 4.112 4.112 0 0 1 1.315-0.684c0.539-0.169 1.102-0.249 1.665-0.243 0.62 0 1.24 0.088 1.837 0.256 0.587 0.169 1.139 0.415 1.645 0.738l-0.95 1.531a3.539 3.539 0 0 0-2.05-0.678 1.699 1.699 0 0 0-1.088 0.344 1.035 1.035 0 0 0-0.425 0.853c0 0.33 0.138 0.651 0.381 0.876 0.249 0.263 0.684 0.627 1.297 1.096 0.624 0.458 1.133 0.853 1.541 1.196 0.351 0.287 0.681 0.613 0.964 0.964 0.219 0.27 0.388 0.583 0.489 0.921a2.724 2.724 0 0 1 0.155 1.008Z"/></svg>